<?xml version="1.0" standalone="no"?>
<!DOCTYPE svg PUBLIC "-//W3C//DTD SVG 20010904//EN"
 "http://www.w3.org/TR/2001/REC-SVG-20010904/DTD/svg10.dtd">
<svg version="1.0" xmlns="http://www.w3.org/2000/svg"
 width="512.000000pt" height="512.000000pt" viewBox="0 0 512.000000 512.000000"
 preserveAspectRatio="xMidYMid meet">

<g transform="translate(0.000000,512.000000) scale(0.100000,-0.100000)"
fill="#000000" stroke="none">
<path d="M2475 5101 c-51 -23 -101 -79 -114 -128 -14 -50 -14 -226 0 -256 11
-24 47 -47 73 -47 7 0 25 9 40 21 25 20 26 24 26 129 0 91 3 111 19 131 16 20
23 22 47 14 l29 -10 3 -598 2 -597 -50 0 -50 0 0 335 c0 322 -1 336 -20 355
-25 25 -71 26 -101 1 l-24 -19 -3 -306 -3 -305 -66 86 c-99 130 -115 172 -124
323 -3 69 -14 154 -23 190 -24 92 -96 234 -156 308 -28 34 -67 93 -85 131 -39
78 -89 127 -140 137 -141 26 -250 -58 -250 -191 0 -50 7 -74 42 -145 23 -47
69 -119 102 -160 83 -104 102 -156 111 -310 4 -69 15 -154 24 -190 25 -95 88
-219 151 -297 30 -37 55 -71 55 -74 0 -4 -6 -12 -14 -18 -12 -10 -84 71 -403
451 -272 324 -401 469 -428 485 -52 29 -131 31 -184 3 -96 -48 -136 -160 -92
-255 10 -22 175 -227 367 -456 192 -228 355 -423 363 -432 12 -16 11 -16 -25
-3 -22 7 -70 19 -109 26 -113 21 -174 58 -294 180 -148 150 -251 208 -443 248
-53 12 -118 32 -145 46 -102 51 -179 43 -249 -28 -75 -74 -83 -177 -21 -258
45 -58 157 -112 300 -144 162 -37 193 -56 329 -201 114 -123 262 -202 438
-234 75 -14 85 -19 68 -41 -12 -14 -71 -6 -610 90 -668 118 -640 116 -718 46
-96 -87 -88 -233 17 -307 36 -26 82 -36 597 -127 307 -54 559 -100 561 -102 2
-2 -51 -30 -118 -63 l-121 -60 -111 4 c-364 12 -410 6 -590 -83 -60 -30 -136
-61 -168 -69 -70 -18 -97 -35 -134 -84 -25 -33 -28 -44 -28 -114 0 -86 10
-108 78 -163 74 -59 217 -40 392 53 117 62 176 76 274 65 42 -5 132 -9 201 -9
151 1 243 24 368 91 81 43 106 48 100 17 -2 -8 -232 -147 -513 -309 -280 -162
-520 -305 -533 -317 -57 -51 -78 -156 -46 -220 48 -94 138 -140 228 -116 48
13 573 312 599 341 39 46 7 118 -53 118 -21 0 -111 -46 -288 -149 -332 -192
-298 -176 -328 -156 -37 24 -32 60 13 89 50 32 958 555 976 562 13 5 57 -53
57 -74 0 -4 -38 -29 -85 -56 -119 -68 -142 -109 -90 -161 33 -34 58 -31 136
15 37 22 70 40 73 40 3 0 -6 -21 -19 -47 -13 -27 -33 -74 -45 -106 -20 -54
-74 -132 -116 -168 -10 -9 -49 -35 -86 -57 -167 -100 -270 -227 -348 -427 -13
-33 -41 -84 -62 -114 -21 -30 -43 -72 -49 -93 -46 -173 163 -314 309 -208 53
38 133 160 172 261 53 137 92 183 225 264 147 90 272 242 329 398 15 43 31 79
35 81 3 2 13 -1 22 -7 14 -11 -9 -80 -189 -572 -164 -446 -205 -570 -205 -610
-1 -104 74 -184 177 -193 70 -6 114 10 159 56 34 35 56 90 228 563 105 288
195 528 200 534 5 5 9 1 9 -13 0 -12 14 -62 30 -112 40 -122 40 -198 0 -319
-16 -49 -35 -130 -41 -180 -15 -114 -1 -235 41 -362 17 -49 30 -108 30 -132 0
-63 17 -113 53 -154 98 -111 261 -91 329 41 31 61 22 208 -23 341 -46 139 -45
214 2 350 33 97 34 104 34 255 0 147 -2 160 -32 250 -24 71 -29 96 -20 102 7
4 17 6 22 5 6 -2 102 -256 215 -565 113 -308 215 -575 228 -591 37 -50 95 -74
169 -69 69 4 97 20 147 81 23 30 31 49 34 95 3 54 -8 89 -187 581 -105 288
-191 527 -191 531 0 4 47 -23 105 -61 122 -81 165 -132 215 -258 18 -46 54
-115 80 -155 57 -86 175 -200 255 -246 33 -19 89 -62 127 -96 52 -48 79 -65
116 -74 160 -38 291 122 227 277 -22 53 -139 162 -239 222 -108 65 -160 128
-205 246 -63 165 -195 322 -349 413 -62 37 -71 46 -61 58 7 9 20 13 29 11 9
-2 234 -130 501 -284 543 -314 532 -308 577 -316 130 -25 255 111 222 240 -20
81 -45 103 -267 231 -115 66 -334 193 -488 282 -154 89 -281 163 -282 164 -2
2 50 10 114 19 148 21 213 10 336 -57 156 -84 325 -118 481 -95 50 7 141 13
202 13 100 1 114 3 146 25 56 39 82 84 86 156 11 176 -141 253 -422 211 -142
-21 -195 -12 -335 59 -125 63 -176 79 -303 95 -92 12 -135 9 -275 -16 -30 -6
-33 -4 -33 20 0 14 5 26 11 26 41 0 1162 204 1192 217 177 76 146 346 -43 378
-39 7 -656 -97 -691 -115 -23 -13 -38 -60 -28 -87 4 -12 19 -29 33 -38 23 -15
42 -13 340 40 343 60 356 60 356 6 0 -16 -6 -33 -13 -39 -12 -10 -1156 -217
-1162 -210 -2 2 -6 24 -10 49 l-7 47 74 12 c40 6 91 16 113 20 73 16 97 79 49
127 -27 27 -25 27 -164 6 l-45 -6 78 83 c117 126 151 145 337 185 151 33 311
131 424 260 32 36 83 83 113 103 100 66 133 174 84 270 -37 72 -132 122 -204
106 -81 -17 -184 -90 -285 -203 -87 -96 -150 -131 -287 -159 -72 -16 -129 -36
-205 -74 -93 -46 -117 -63 -207 -154 -83 -83 -104 -100 -113 -88 -7 7 -10 18
-8 23 1 5 172 210 378 456 206 246 383 463 394 483 46 89 7 211 -84 260 -59
31 -150 28 -201 -7 -19 -13 -196 -216 -393 -452 -198 -236 -361 -428 -362
-426 -1 1 2 58 6 127 9 163 24 200 127 328 98 121 151 268 163 452 4 69 16
152 25 184 22 76 16 136 -22 190 -73 105 -234 114 -316 17 -47 -56 -86 -220
-87 -367 0 -91 -30 -165 -110 -269 -118 -155 -167 -285 -177 -473 -6 -108 -7
-113 -27 -110 l-21 3 -5 620 c-4 552 -7 623 -22 650 -50 91 -160 129 -253 86z
m896 -242 c8 -17 7 -35 -6 -81 -9 -33 -20 -117 -24 -186 -12 -185 -46 -275
-156 -412 -96 -120 -124 -196 -135 -378 -4 -73 -10 -135 -12 -138 -3 -2 -25 4
-48 14 l-44 18 3 104 c5 180 47 300 152 437 106 136 134 211 143 388 6 108 21
189 45 233 16 30 66 30 82 1z m-1602 -84 c20 -39 60 -100 89 -135 99 -121 152
-272 152 -431 0 -60 6 -108 21 -155 29 -93 45 -123 129 -233 39 -51 68 -97 63
-101 -10 -10 -83 -33 -87 -28 -56 61 -125 161 -156 223 -51 103 -70 179 -70
282 0 45 -5 106 -11 135 -16 76 -69 184 -121 248 -127 156 -161 277 -76 268
28 -3 36 -11 67 -73z m-497 -587 c107 -128 277 -331 378 -452 l184 -218 -35
-29 c-18 -16 -37 -29 -41 -29 -8 0 -748 879 -755 898 -11 27 15 62 45 62 25 0
53 -29 224 -232z m2822 211 c8 -12 12 -29 8 -39 -10 -27 -745 -900 -758 -900
-5 0 -23 13 -39 30 -25 26 -26 31 -14 47 39 50 686 823 713 851 35 37 68 41
90 11z m527 -549 c12 -7 19 -21 19 -40 0 -24 -10 -37 -54 -69 -29 -22 -82 -72
-117 -111 -114 -126 -236 -196 -402 -230 -150 -30 -220 -71 -344 -199 -56 -58
-104 -103 -106 -101 -2 3 -14 22 -26 43 l-23 38 79 86 c125 139 227 196 425
238 125 26 190 64 298 175 86 88 200 180 222 180 5 0 18 -5 29 -10z m-4088
-88 c34 -16 107 -39 162 -50 66 -14 129 -36 185 -64 72 -36 102 -60 200 -158
135 -135 194 -171 332 -201 104 -22 158 -38 158 -46 0 -3 -10 -23 -22 -45 -18
-31 -27 -38 -43 -33 -11 3 -56 12 -100 21 -159 31 -250 85 -395 233 -124 126
-195 166 -354 200 -131 27 -223 70 -232 107 -6 21 -2 31 16 46 12 10 24 18 27
18 3 0 32 -13 66 -28z m2269 -180 c283 -76 522 -262 658 -515 140 -259 159
-584 51 -862 -85 -220 -261 -417 -475 -531 -165 -88 -297 -119 -496 -118 -212
1 -379 52 -557 170 -540 358 -616 1119 -158 1580 151 152 334 249 548 290 103
19 329 12 429 -14z m-1987 -642 c311 -55 570 -100 575 -100 11 0 3 -79 -9 -92
-6 -7 -1116 183 -1154 198 -26 10 -33 51 -12 74 10 11 22 20 26 20 5 0 263
-45 574 -100z m565 -492 c0 -7 3 -29 6 -49 l6 -35 -108 -56 c-70 -36 -137 -62
-187 -73 -79 -17 -88 -17 -342 1 -108 8 -188 -12 -322 -80 -121 -62 -221 -88
-247 -67 -22 18 -21 68 2 79 9 5 39 14 65 21 27 6 96 36 155 66 169 87 209 92
522 69 114 -8 193 11 325 81 111 58 125 63 125 43z m2737 -53 c32 -8 108 -40
168 -70 165 -82 236 -94 395 -70 105 16 215 13 253 -6 21 -12 23 -62 2 -79
-11 -9 -34 -11 -79 -6 -41 4 -102 1 -167 -10 -167 -25 -276 -6 -448 80 -155
78 -242 94 -384 72 -53 -9 -111 -16 -128 -16 -29 0 -30 1 -24 33 13 66 10 63
113 80 107 17 207 15 299 -8z m-9 -651 c273 -158 503 -294 510 -302 17 -22 15
-39 -9 -63 -13 -13 -27 -18 -39 -14 -16 5 -924 525 -997 571 l-22 14 22 40
c12 22 25 40 30 40 4 0 231 -129 505 -286z m-2312 -98 c-8 -11 -26 -53 -40
-93 -55 -147 -148 -257 -289 -342 -132 -80 -205 -167 -263 -316 -15 -38 -47
-100 -71 -138 -52 -78 -85 -95 -115 -57 -10 12 -18 26 -18 30 0 4 18 34 40 66
22 33 56 99 75 147 19 48 47 107 62 130 45 72 144 166 228 217 78 48 160 122
204 187 12 18 37 72 56 119 19 47 41 96 50 110 l16 24 39 -31 c35 -29 38 -33
26 -53z m1638 -31 c66 -39 160 -127 206 -196 22 -31 56 -98 76 -148 56 -140
133 -235 241 -297 70 -41 159 -110 182 -143 27 -38 27 -77 1 -91 -29 -16 -50
-6 -95 42 -22 23 -78 66 -125 96 -149 95 -233 193 -290 339 -61 153 -122 229
-250 311 -47 30 -95 64 -108 76 l-24 21 38 32 38 31 30 -23 c17 -12 53 -35 80
-50z m-1271 -147 c15 -5 27 -15 27 -21 0 -30 -397 -1091 -411 -1100 -22 -14
-66 -1 -73 21 -5 15 101 316 361 1025 29 79 39 97 52 92 9 -4 28 -12 44 -17z
m1040 -522 c108 -299 197 -552 197 -563 0 -10 -5 -24 -12 -31 -18 -18 -66 -15
-76 6 -5 9 -96 256 -202 547 -106 292 -194 535 -197 540 -3 8 61 41 87 44 3 1
94 -244 203 -543z m-603 347 c33 -101 35 -117 35 -238 0 -122 -2 -136 -35
-230 -29 -87 -34 -113 -34 -195 0 -82 5 -109 34 -195 28 -82 34 -115 35 -185
0 -84 0 -84 -29 -94 -40 -15 -66 18 -66 84 0 28 -15 96 -37 162 -33 103 -36
123 -36 228 0 105 3 125 36 228 51 157 51 245 2 402 -19 61 -35 118 -35 126 0
10 13 14 48 14 l48 0 34 -107z"/>
<path d="M1954 3000 c-26 -10 -54 -48 -54 -71 0 -9 9 -28 21 -43 l20 -26 210
0 c196 0 210 1 229 20 25 25 26 71 1 101 -19 24 -23 24 -213 26 -106 1 -203
-2 -214 -7z"/>
<path d="M2654 3000 c-50 -20 -54 -40 -54 -262 0 -194 -1 -209 -20 -228 -11
-11 -32 -22 -47 -25 -75 -17 -103 -49 -86 -102 31 -93 208 -50 273 67 23 42
25 56 30 225 l5 180 208 5 c192 5 210 7 223 24 21 29 18 80 -7 102 -19 17 -41
19 -263 21 -132 1 -251 -2 -262 -7z"/>
<path d="M2330 2131 c-35 -35 -38 -59 -9 -95 l20 -26 210 0 c196 0 210 1 229
20 27 27 26 81 -1 106 -19 17 -41 19 -220 22 l-199 3 -30 -30z"/>
<path d="M2475 1888 c-36 -32 -39 -82 -6 -110 34 -27 143 -26 171 2 25 25 26
71 1 101 -14 18 -31 23 -78 27 -52 4 -63 1 -88 -20z"/>
</g>
</svg>
