<svg version="1.1" id="Layer_1" xmlns="http://www.w3.org/2000/svg" xmlns:xlink="http://www.w3.org/1999/xlink" x="0px" y="0px"
	 width="100%" viewBox="0 0 496 496" enable-background="new 0 0 496 496" xml:space="preserve">
<path fill="#ffffffff" opacity="1.000000" stroke="none" 
	d="
M497.000000,201.000000 
	C497.000000,234.020889 497.000000,267.041779 496.908081,300.888855 
	C495.962799,304.918243 495.125610,308.125854 494.253693,311.324005 
	C470.643127,397.926361 416.598602,456.651459 332.554443,487.941040 
	C322.566040,491.659729 312.095154,493.680603 302.000000,497.000000 
	C267.979095,497.000000 233.958206,497.000000 199.192123,496.768738 
	C197.683792,496.213806 196.948883,495.768311 196.153458,495.584076 
	C154.150040,485.854706 116.750832,467.047241 84.542107,438.337341 
	C52.080887,409.402466 28.645243,374.349457 14.284883,333.220642 
	C7.340506,313.331604 3.474782,292.830414 1.000000,272.000000 
	C1.000000,258.312439 1.000000,244.624878 1.000500,230.070236 
	C1.216175,228.061401 1.509497,226.928162 1.635008,225.776642 
	C4.244900,201.832047 9.396670,178.458710 19.026690,156.343231 
	C55.266148,73.118813 117.883644,22.387262 206.976105,4.406785 
	C212.647049,3.262281 218.619675,3.571742 224.000000,1.000000 
	C241.687561,1.000000 259.375122,1.000000 277.863586,1.165494 
	C280.095673,1.744349 281.501984,2.362205 282.961884,2.539824 
	C299.847839,4.594286 316.379059,8.206953 332.367828,14.040425 
	C409.228302,42.082863 461.557159,94.522118 488.672943,171.807526 
	C492.017059,181.338913 494.251404,191.259674 497.000000,201.000000 
M70.392021,153.820267 
	C47.641357,196.730392 40.629025,242.259293 49.668694,289.793640 
	C58.454868,335.994995 80.876793,375.042511 116.701050,405.627747 
	C168.277634,449.661682 227.961929,465.135986 294.237549,451.308319 
	C384.196106,432.539429 447.039978,356.002228 454.901947,271.672241 
	C458.379425,234.371826 452.836212,198.627701 436.996643,164.637833 
	C395.424988,75.429871 296.856659,27.944460 201.263031,52.094246 
	C143.417999,66.707603 100.016975,101.098602 70.392021,153.820267 
M39.734955,363.798767 
	C54.695305,391.356750 74.127464,415.259064 98.311707,435.243713 
	C135.938385,466.336517 179.073532,484.558136 227.596222,489.486877 
	C251.206375,491.885101 274.808502,490.773865 298.101562,485.745148 
	C372.288422,469.728912 427.238159,427.947174 463.348633,361.457489 
	C478.217010,334.080627 486.249786,304.422699 489.462067,273.492401 
	C490.042969,267.899078 489.544800,262.193726 489.544800,256.319489 
	C486.622650,257.240112 485.234802,259.232086 483.769958,260.946747 
	C481.029236,264.154785 478.787384,264.572052 475.753174,261.111877 
	C473.463470,258.500732 471.337769,255.346222 466.850098,254.173691 
	C466.252258,309.518250 446.809235,357.295319 409.875366,397.571655 
	C372.663727,438.150909 326.052338,461.420319 271.224640,466.089355 
	C208.843460,471.401672 153.009750,454.000031 106.324692,411.645630 
	C59.946156,369.569275 36.401154,316.404327 34.057819,253.429276 
	C30.526718,256.262787 27.762217,259.118744 25.119562,262.083282 
	C23.266535,264.161987 21.625238,264.173065 19.701292,262.168549 
	C17.347080,259.715698 14.845274,257.404510 11.967223,254.603851 
	C11.601683,281.175018 17.519077,321.533691 39.734955,363.798767 
M423.002655,84.496941 
	C342.234833,0.382233 209.510391,-13.319611 112.609535,55.677895 
	C64.999718,89.578102 33.829811,135.396103 18.960814,191.998611 
	C14.350825,209.547668 11.797750,227.472992 11.802512,246.193634 
	C15.366516,244.870300 16.989271,242.649551 18.709286,240.720978 
	C21.317938,237.795990 23.318216,237.848816 26.021761,240.711609 
	C28.404198,243.234375 30.420063,246.448822 34.885662,247.720581 
	C36.214630,193.251480 54.482307,145.783783 90.881104,105.663124 
	C127.453079,65.351578 173.178284,42.235405 226.989792,36.015450 
	C267.508240,31.332016 306.979980,37.175571 343.612274,55.575756 
	C422.352234,95.126343 462.535614,160.187927 467.664398,247.990448 
	C471.433167,245.807724 473.798523,242.975021 476.231964,240.325485 
	C478.815613,237.512405 480.807465,237.786453 483.202057,240.463226 
	C484.899536,242.360733 486.479187,244.561417 490.293701,245.864212 
	C488.364380,183.123398 465.630402,130.081833 423.002655,84.496941 
z"/>
<path fill="#ffffffff" opacity="1.000000" stroke="none" 
	d="
M123.722855,218.448792 
	C127.081573,209.843460 134.763367,206.118973 142.578064,208.441132 
	C149.478378,210.491592 153.595169,218.740295 147.228561,224.291931 
	C146.649338,224.797012 146.327103,225.596832 145.555008,226.755936 
	C152.464584,230.685837 159.591888,231.149094 166.880875,230.287582 
	C173.198654,229.540863 179.155960,227.319931 185.116119,225.198624 
	C197.774185,220.693451 210.120987,215.330475 223.404068,211.958862 
	C221.808716,208.804138 219.097397,207.997711 216.925446,206.612213 
	C212.669449,203.897232 208.765793,200.860657 205.807037,196.709381 
	C198.106598,185.905289 201.419754,173.631378 213.488617,168.143661 
	C220.048813,165.160751 226.775040,165.350235 233.535675,167.075775 
	C235.384323,167.547607 237.735397,168.082123 238.079666,170.444138 
	C238.441681,172.927933 236.524261,174.391571 234.676834,175.545197 
	C228.816452,179.204620 222.738663,180.606857 216.301727,176.902039 
	C215.762833,176.591873 215.135605,176.435150 214.033768,176.006561 
	C212.401321,182.151169 214.816971,186.711594 218.658249,190.549393 
	C224.391403,196.277374 231.846664,198.787781 239.497299,200.760941 
	C242.229675,201.465637 243.267426,199.839798 243.381882,197.588150 
	C243.584595,193.600113 243.668549,189.594055 243.545319,185.603470 
	C242.883087,164.157837 241.686005,142.731125 241.568726,121.264099 
	C241.543198,116.592369 242.764877,114.783676 247.677475,114.798386 
	C260.494019,114.836784 260.607208,114.644325 260.305084,127.246284 
	C259.786224,148.887268 259.107452,170.524399 258.508240,192.163498 
	C258.457550,193.994492 258.402313,195.834671 258.524872,197.658768 
	C258.674438,199.884567 260.041168,201.188324 262.206207,200.635910 
	C271.465942,198.273224 280.671814,195.669891 286.347595,186.991852 
	C288.397766,183.857178 289.443115,180.423691 288.352722,176.741013 
	C286.418457,175.809540 285.304810,177.202774 284.008820,177.757172 
	C277.984802,180.334152 269.939301,178.660614 265.536255,173.910538 
	C263.396545,171.602203 263.180786,169.739105 266.205353,167.916748 
	C275.932526,162.055984 293.676331,167.210983 298.613403,177.418411 
	C301.749023,183.901245 300.846558,190.077866 296.953979,195.874130 
	C293.940094,200.361969 289.885620,203.782425 285.256348,206.589615 
	C283.183868,207.846359 280.662750,208.591537 279.394623,210.771606 
	C279.434143,211.983353 280.117279,212.379639 280.975220,212.614365 
	C294.655457,216.357178 307.618591,222.133163 320.993774,226.743134 
	C331.085907,230.221558 341.224640,232.297165 351.779114,228.879196 
	C353.617706,228.283798 353.636749,228.342560 356.042450,226.362534 
	C355.802277,225.832428 355.666168,225.137939 355.258484,224.691483 
	C349.302002,218.168869 350.911713,211.496002 359.201691,208.474472 
	C365.078064,206.332672 373.634186,209.321823 376.784882,214.617386 
	C380.071716,220.141708 378.658844,226.866501 373.204712,231.657669 
	C366.822845,237.263840 366.893616,237.238297 369.829254,245.358185 
	C380.186646,274.006409 390.473907,302.680023 400.832184,331.327911 
	C402.635956,336.316589 402.897125,343.001465 411.765717,340.527039 
	C398.625519,362.356323 328.354767,363.030640 307.889465,341.801880 
	C317.816986,341.883514 317.861725,333.868652 320.054077,327.872711 
	C329.772430,301.293427 339.277740,274.636169 348.827271,247.995331 
	C351.166748,241.468811 351.014435,241.029434 344.070526,241.415054 
	C327.309631,242.345856 312.582642,235.282227 297.372955,230.042007 
	C295.374512,229.353485 293.538605,227.934219 290.368347,228.719696 
	C295.261047,247.502777 284.343903,258.458527 270.075775,267.076691 
	C270.728149,269.624054 272.458191,270.160767 273.805420,271.026703 
	C291.267792,282.250610 288.729309,298.579742 279.457123,311.042389 
	C277.298401,313.943909 274.411804,316.346405 271.660431,318.749878 
	C269.770599,320.400757 269.257843,321.765991 271.214691,323.660309 
	C280.196442,332.355042 280.394623,346.221008 267.648590,355.443939 
	C266.974182,355.931915 266.393433,356.569855 265.677307,356.976196 
	C261.904358,359.116974 262.475830,361.063629 265.357849,363.817749 
	C272.649567,370.785858 273.593872,377.612762 268.513245,386.259399 
	C266.894012,389.015167 267.160950,390.757751 269.580811,392.586761 
	C274.853119,396.571777 280.485291,399.561646 287.270416,399.977478 
	C291.958527,400.264801 296.598236,400.743530 299.615448,405.240723 
	C300.763702,406.952209 302.896790,406.621948 304.712921,406.627441 
	C313.544922,406.654114 322.377167,406.675079 331.209045,406.637329 
	C334.427002,406.623566 337.524017,407.133575 340.417816,408.521545 
	C343.348694,409.927307 345.135620,412.104553 344.659851,415.580139 
	C338.120300,417.342346 164.422516,417.384918 157.120850,415.581940 
	C156.788986,411.123688 159.719254,409.200287 163.260773,407.810333 
	C167.418121,406.178711 171.799576,406.677124 176.113953,406.653717 
	C181.446320,406.624786 186.779221,406.698242 192.111603,406.671448 
	C196.848389,406.647675 201.539368,407.314209 205.165604,402.586060 
	C207.174942,399.966156 211.184891,400.097961 214.531723,399.898285 
	C221.471481,399.484222 227.302948,396.458313 232.660843,392.281006 
	C234.371857,390.946960 235.295761,389.710815 234.177490,387.241455 
	C228.476013,374.651093 229.052658,371.977356 238.895554,361.824341 
	C239.333527,361.372528 239.621063,360.774933 240.203766,359.911865 
	C237.283569,357.549011 234.356705,355.416412 231.700150,352.988129 
	C222.867340,344.914246 221.979599,333.962677 229.798721,325.028229 
	C232.645798,321.775024 232.361557,320.014862 229.117981,317.530029 
	C223.581512,313.288635 219.845428,307.628876 217.206329,301.160828 
	C212.674622,290.054291 216.263306,279.465973 227.322464,271.709717 
	C229.053467,270.495697 231.232941,269.830750 232.596054,267.516602 
	C226.320358,262.692932 219.123734,258.945648 214.808105,251.898376 
	C210.383301,244.672775 209.639557,236.975632 212.142883,227.520706 
	C191.613678,234.064133 173.173965,244.136963 152.442398,241.145554 
	C150.878296,243.609573 152.128540,245.107178 152.648819,246.561050 
	C163.305374,276.339478 174.163620,306.046875 184.598328,335.902435 
	C186.240387,340.600677 189.708511,340.848724 193.351944,341.706543 
	C180.339615,362.721313 110.209251,362.820587 90.783417,342.104370 
	C90.933884,341.825439 91.100708,341.302673 91.243904,341.309082 
	C97.336304,341.581085 99.077057,337.556641 100.819328,332.634552 
	C111.481621,302.512604 122.357513,272.465576 133.330505,242.455109 
	C134.888275,238.194672 134.543243,235.382370 130.416168,232.869629 
	C125.327454,229.771362 122.894325,224.996841 123.722855,218.448792 
M143.374924,332.383118 
	C143.392914,340.963928 143.392883,340.986633 151.858871,340.997803 
	C160.345978,341.009003 168.833511,341.008820 177.320221,340.937225 
	C183.420242,340.885742 183.841797,340.265015 181.815231,334.609772 
	C176.768860,320.527588 171.695908,306.454926 166.629807,292.379791 
	C160.718094,275.955261 154.799011,259.533356 148.893127,243.106735 
	C148.248703,241.314331 147.494400,239.391678 145.193314,239.886597 
	C143.072220,240.342804 143.460434,242.421860 143.388412,244.044754 
	C143.344193,245.041367 143.374298,246.041382 143.374298,247.039871 
	C143.374146,275.164124 143.374405,303.288361 143.374924,332.383118 
M358.623871,315.500183 
	C358.625122,291.850098 358.636963,268.199982 358.605835,244.549927 
	C358.603546,242.814331 359.266327,240.421570 356.909576,239.858109 
	C354.346619,239.245346 353.583008,241.637024 352.923370,243.466095 
	C341.802856,274.301819 330.750580,305.162140 319.618744,335.993774 
	C318.351410,339.503906 319.307709,340.974609 323.038025,340.957062 
	C333.197144,340.909210 343.357544,340.886017 353.515656,341.005707 
	C357.471741,341.052338 358.760437,339.221954 358.664337,335.485718 
	C358.501709,329.161041 358.622284,322.829071 358.623871,315.500183 
M116.506416,340.820557 
	C122.330109,340.860199 128.153824,340.933472 133.977493,340.930481 
	C140.380356,340.927216 140.801270,340.530884 140.802063,334.144684 
	C140.805817,304.027344 140.779388,273.910034 140.756271,243.792694 
	C140.755386,242.629486 140.724884,241.462189 140.622406,240.304398 
	C140.529861,239.258545 140.110733,238.348709 138.973190,238.071411 
	C137.746384,237.772385 137.122696,238.620697 136.663666,239.521759 
	C136.212936,240.406509 135.891052,241.360611 135.554703,242.299347 
	C124.455246,273.277924 113.357094,304.256958 102.277145,335.242523 
	C101.735870,336.756195 100.700935,338.253448 101.871078,340.257477 
	C106.257828,341.239746 110.912239,340.568665 116.506416,340.820557 
M361.216431,337.924561 
	C361.916962,341.028381 364.393799,340.923157 366.744568,340.916321 
	C376.243835,340.888794 385.743256,340.843048 395.242188,340.758698 
	C401.360199,340.704376 401.616486,340.338104 399.493134,334.411316 
	C388.488831,303.695343 377.460175,272.988129 366.433411,242.280228 
	C366.096161,241.340988 365.741760,240.400055 365.294708,239.510513 
	C364.913239,238.751572 364.302765,238.075043 363.378479,238.130829 
	C362.237976,238.199707 361.583527,238.993393 361.421143,240.068695 
	C361.247742,241.216827 361.152832,242.388062 361.151825,243.549332 
	C361.124146,274.713104 361.112976,305.876892 361.216431,337.924561 
M262.918488,252.266876 
	C264.485168,250.557419 266.296539,249.012253 267.574432,247.108917 
	C272.120178,240.338364 270.560577,232.488556 263.952118,227.946716 
	C260.448303,225.538620 258.536743,226.263580 258.431549,230.343506 
	C258.255737,237.162430 258.383545,243.989166 258.383331,250.812622 
	C258.383240,254.308853 259.936462,254.456436 262.918488,252.266876 
M238.139496,251.219833 
	C239.458557,252.138855 240.454208,253.663635 242.453079,253.510681 
	C242.733871,253.155411 243.283218,252.784470 243.288834,252.405487 
	C243.404083,244.614944 243.613281,236.820206 243.448364,229.033813 
	C243.379715,225.792603 241.259399,225.655579 238.993927,227.351837 
	C231.695099,232.816833 227.540253,241.078766 238.139496,251.219833 
M258.395264,286.646332 
	C258.395264,292.527466 258.395264,298.408600 258.395264,304.730530 
	C266.613220,300.086731 268.090363,290.681244 262.131989,285.672913 
	C260.869080,284.611389 259.456268,283.043976 258.395264,286.646332 
M236.328857,294.326477 
	C236.847321,298.332245 238.171249,301.785858 242.827972,304.060272 
	C243.912521,297.006744 244.192551,290.805908 242.610382,284.047577 
	C238.393127,286.434570 236.479279,289.414124 236.328857,294.326477 
M261.924011,383.134308 
	C262.551331,384.000885 262.709625,385.433105 264.303406,385.154053 
	C266.677795,378.722748 264.876923,373.766632 259.327759,371.508636 
	C258.905426,375.446198 259.780243,379.092224 261.924011,383.134308 
M239.444778,373.402588 
	C236.822830,377.180054 235.409973,381.060883 238.381561,386.294708 
	C240.699203,381.098907 243.723007,377.072083 242.143341,371.304260 
	C241.137894,372.024139 240.501465,372.479797 239.444778,373.402588 
M138.818512,215.877792 
	C139.553543,215.860535 140.124130,216.139435 140.226913,216.909698 
	C140.471634,218.743378 141.146545,220.117828 143.322632,219.685898 
	C144.234756,219.504868 144.617767,218.667603 144.449249,217.789215 
	C144.064240,215.782333 142.455704,215.354431 140.766403,215.286102 
	C140.010269,215.255524 138.991043,214.726852 138.818512,215.877792 
M361.439758,218.069748 
	C361.613556,216.399811 361.576782,214.822144 359.195282,215.701569 
	C357.794739,216.218735 356.892517,217.500595 357.763733,218.842529 
	C358.828430,220.482483 360.232056,220.138336 361.439758,218.069748 
z"/>
<path fill="#ffffffff" opacity="1.000000" stroke="none" 
	d="
M380.212677,127.710045 
	C387.515717,130.911621 394.479980,133.958878 401.588928,137.069458 
	C400.185730,140.947266 397.217773,141.045776 394.511993,141.376617 
	C386.310181,142.379486 378.605896,140.379044 371.221893,137.047501 
	C359.361511,131.696274 348.075348,125.266258 336.937408,118.556137 
	C332.615540,115.952400 329.798187,111.690002 325.055298,107.856567 
	C324.825562,126.508255 314.204041,133.606735 298.008392,134.233353 
	C295.039642,149.891785 279.951508,158.614197 265.142548,153.692978 
	C262.197052,152.714142 260.653778,151.188049 260.849243,147.950043 
	C261.059937,144.460281 261.101105,140.954300 261.062866,137.457077 
	C261.018951,133.443176 262.842529,132.157822 266.700928,132.963638 
	C272.854553,134.248764 278.372253,132.972839 282.481110,127.942574 
	C284.906647,124.973083 285.934265,121.633568 282.272369,118.756348 
	C276.493866,114.216095 272.580658,108.900391 275.156647,101.150528 
	C277.956970,92.725708 284.875763,89.581635 292.911163,88.797424 
	C302.647491,87.847206 312.141205,88.988335 321.108246,93.460556 
	C337.250153,101.511192 351.795135,112.239311 367.565521,120.901550 
	C371.653320,123.146873 375.770294,125.339104 380.212677,127.710045 
z"/>
<path fill="#ffffffff" opacity="1.000000" stroke="none" 
	d="
M209.025558,146.971863 
	C205.868729,143.193375 202.773987,139.708328 206.339951,134.022675 
	C189.347794,134.025055 177.809677,127.663269 176.846970,107.804024 
	C170.767731,114.310417 165.116333,118.780670 158.794128,122.378998 
	C147.217773,128.967758 135.701813,135.663452 122.969780,139.873413 
	C117.828918,141.573288 112.551025,141.947144 107.185356,141.377853 
	C104.652763,141.109116 102.375320,140.372375 100.881729,138.652985 
	C100.706863,136.854889 101.690605,136.348846 102.589027,136.029099 
	C127.947350,127.004295 149.752716,111.442520 172.624496,97.868904 
	C183.364487,91.495087 194.593536,87.581459 207.210831,88.605690 
	C215.763763,89.299988 223.292770,91.824203 226.862686,100.642342 
	C229.210251,106.441147 227.656219,111.508110 222.132446,116.702049 
	C215.890030,122.571709 216.776550,128.057877 224.567978,131.890228 
	C228.001007,133.578827 231.626297,133.980591 235.274780,133.086761 
	C239.576874,132.032791 241.098434,133.821167 241.051636,137.893127 
	C241.019135,140.720688 240.990143,143.583771 241.377197,146.373032 
	C242.096741,151.558472 239.500534,153.510559 234.824554,154.306580 
	C225.142426,155.954849 216.701614,153.546188 209.025558,146.971863 
z"/>
<path fill="#ffffffff" opacity="1.000000" stroke="none" 
	d="
M342.728668,125.271561 
	C353.518036,133.261414 365.128143,139.165146 376.893188,145.183350 
	C370.803528,148.509918 364.704285,148.150208 358.794617,146.188126 
	C351.023895,143.608170 344.044830,139.304886 337.127258,134.974945 
	C333.886749,132.946625 330.535126,131.062485 327.474579,128.788971 
	C324.113617,126.292282 324.217468,122.409348 327.857910,117.878059 
	C330.431396,114.674835 332.523193,117.567368 334.527710,119.000984 
	C337.228516,120.932617 339.817383,123.020691 342.728668,125.271561 
z"/>
<path fill="#ffffffff" opacity="1.000000" stroke="none" 
	d="
M144.777344,134.768661 
	C153.134903,129.856140 160.722809,124.467873 168.175827,118.868538 
	C169.842636,117.616302 171.577072,114.969429 174.074799,117.678963 
	C176.970413,120.820114 177.921066,126.347206 175.439835,127.933006 
	C162.089828,136.465256 149.697372,147.213135 132.651016,147.733261 
	C130.126587,147.810272 127.241821,148.445190 125.158768,144.785400 
	C131.655624,141.475510 138.058411,138.213547 144.777344,134.768661 
z"/>
<path fill="#ffffffff" opacity="1.000000" stroke="none" 
	d="
M236.873276,98.341827 
	C238.354324,91.455254 243.037552,88.546898 249.012512,87.710449 
	C254.344955,86.963951 259.454712,88.323502 262.851746,92.798866 
	C267.394806,98.784042 265.701263,106.698944 259.445374,110.607613 
	C252.372971,115.026428 242.007660,112.740242 238.402374,105.935265 
	C237.218018,103.699768 236.468430,101.335899 236.873276,98.341827 
M260.064270,96.792282 
	C259.367767,95.752136 258.886383,94.271767 256.856628,95.478363 
	C258.125824,99.348068 256.796326,102.874191 253.815491,107.146851 
	C259.347260,104.899956 261.312256,102.051125 260.064270,96.792282 
z"/>
<path fill="#ffffffff" opacity="1.000000" stroke="none" 
	d="
M333.105042,135.891510 
	C340.302917,141.773346 348.501343,145.508575 356.230316,150.466339 
	C346.553345,156.874741 327.349457,146.446884 315.444183,133.972809 
	C317.253693,132.556274 319.078278,131.198242 320.823029,129.744476 
	C323.058807,127.881592 325.091736,128.320801 327.043213,130.148331 
	C328.988586,131.970139 330.908081,133.819611 333.105042,135.891510 
z"/>
<path fill="#ffffffff" opacity="1.000000" stroke="none" 
	d="
M182.025085,130.640442 
	C183.662064,131.787323 184.999908,132.726395 186.300232,133.639114 
	C181.580444,144.353531 156.042999,155.573578 146.677338,151.139709 
	C146.885971,148.862473 148.946228,148.516891 150.440247,147.698929 
	C159.190613,142.908173 167.762192,137.863022 174.882416,130.740372 
	C177.136887,128.485138 179.329361,127.988815 182.025085,130.640442 
z"/>
<path fill="#ffffffff" opacity="1.000000" stroke="none" 
	d="
M306.491089,136.150513 
	C310.745636,134.474228 313.739044,135.450027 316.410645,138.772720 
	C320.068054,143.321381 325.021759,146.491608 329.512421,150.146042 
	C330.748169,151.151688 332.509644,151.749496 332.506714,153.976715 
	C329.985199,156.197281 326.937653,155.747818 324.177032,154.850021 
	C316.300018,152.288300 309.588257,147.830093 304.228180,141.457306 
	C301.897308,138.686066 301.996307,136.705490 306.491089,136.150513 
z"/>
<path fill="#ffffffff" opacity="1.000000" stroke="none" 
	d="
M192.617752,135.526093 
	C195.052307,136.105652 197.112503,136.622314 200.135773,137.380508 
	C195.772385,146.178024 188.268555,150.386993 180.403656,154.024841 
	C176.875183,155.656937 173.022461,156.649231 168.676132,153.468704 
	C174.403091,148.335785 180.405243,144.472488 185.297592,139.356522 
	C187.168396,137.400192 188.759232,134.660049 192.617752,135.526093 
z"/>
<path fill="#ffffffff" opacity="1.000000" stroke="none" 
	d="
M434.775330,119.785126 
	C432.387878,120.410606 430.300476,120.882011 428.139679,119.973640 
	C427.420807,116.645119 430.960815,114.730507 430.783356,111.310562 
	C427.955444,111.996147 426.326111,113.991890 424.651886,116.023186 
	C423.183746,115.779144 422.444519,114.839348 422.123749,113.167213 
	C427.072021,110.650169 431.558624,107.354500 436.391113,103.099930 
	C440.136139,109.173218 433.391937,112.441879 433.408600,117.334106 
	C437.532379,119.341858 442.508728,113.181137 447.021942,118.069168 
	C442.325287,121.616898 437.994568,124.888206 433.624908,128.188919 
	C432.066956,127.665657 431.296692,126.500381 430.880157,124.587006 
	C432.985626,123.308769 435.584808,122.465103 437.118103,120.195564 
	C436.691711,119.046684 435.832123,119.555206 434.775330,119.785126 
z"/>
<path fill="#ffffffff" opacity="1.000000" stroke="none" 
	d="
M403.851318,89.947937 
	C407.478271,86.659851 410.977173,83.647232 413.996521,79.456543 
	C419.134918,84.827553 412.092133,89.174957 413.488342,93.882057 
	C417.762177,94.514938 421.047241,90.423538 425.335175,91.424568 
	C425.981964,91.575577 426.569855,91.978798 427.235382,92.288826 
	C422.849335,96.813606 419.094055,100.687675 415.453430,104.443474 
	C413.392944,104.514885 412.509979,103.434769 411.845764,101.853714 
	C414.056976,99.767563 416.287354,97.663322 419.182434,94.931961 
	C414.895508,95.515846 412.021942,98.004715 408.249084,97.715797 
	C407.394806,93.879944 410.488342,91.087914 410.486450,87.182411 
	C407.893616,89.075974 405.707397,90.888184 404.509735,93.931747 
	C402.290100,92.836075 400.304321,92.060646 403.851318,89.947937 
z"/>
<path fill="#ffffffff" opacity="1.000000" stroke="none" 
	d="
M138.856415,44.425758 
	C140.005371,47.182819 140.563797,50.138908 144.497360,48.084953 
	C149.457047,45.495193 145.470428,42.923992 144.671463,40.291893 
	C145.219360,38.897881 146.393295,38.419968 147.924591,38.214802 
	C150.433411,42.990662 152.957153,47.794930 155.547287,52.725563 
	C154.982056,54.173397 153.568466,54.588192 151.661850,55.027733 
	C150.376297,51.163254 148.949432,45.996872 143.774994,51.258442 
	C141.475983,53.596188 145.121994,55.492912 146.003082,57.682919 
	C145.120209,59.217793 143.825623,60.051743 141.664642,60.020634 
	C140.084824,54.832352 137.343826,50.139160 134.324860,45.413059 
	C135.478622,43.983669 136.629883,42.622894 138.856415,44.425758 
z"/>
<path fill="#ffffffff" opacity="1.000000" stroke="none" 
	d="
M71.168022,123.144608 
	C68.560318,123.624886 66.166321,122.838989 63.946754,124.036491 
	C64.234100,126.559303 66.880669,126.415794 68.108765,127.665184 
	C68.109535,129.548477 67.124100,130.564240 65.669228,131.421753 
	C61.241539,128.301743 56.800121,125.172081 52.093384,121.855446 
	C52.561047,119.073273 54.115486,116.765450 56.351192,115.033539 
	C58.457775,113.401649 61.733887,112.473930 63.018623,114.919357 
	C65.345680,119.348793 68.740074,120.378357 72.941734,119.624329 
	C73.441940,121.707573 72.564583,122.426712 71.168022,123.144608 
M57.254246,118.226349 
	C56.418015,121.457115 58.731098,121.492470 61.017334,122.131226 
	C61.811012,118.809738 61.370342,117.009293 57.254246,118.226349 
z"/>
<path fill="#ffffffff" opacity="1.000000" stroke="none" 
	d="
M467.756531,155.169342 
	C468.716949,157.441620 469.778320,159.396042 470.160950,161.475388 
	C470.657043,164.171570 469.555786,167.344009 466.743317,167.028595 
	C461.520416,166.442841 459.512787,169.687912 457.310486,173.552811 
	C452.822174,169.113388 458.954010,166.629089 458.485199,163.060394 
	C456.394379,161.918976 455.086639,164.541000 453.182220,164.358261 
	C451.815063,163.439529 451.414307,162.061752 451.317322,160.298737 
	C456.204773,158.902039 460.960968,157.091141 465.419983,154.592453 
	C466.297791,154.100571 466.939026,154.149902 467.756531,155.169342 
M464.007263,163.529175 
	C466.094299,163.546951 467.707428,162.708237 467.382812,160.453491 
	C467.110443,158.561966 465.453033,159.101883 464.273590,159.630951 
	C462.436676,160.454941 460.883514,161.495728 464.007263,163.529175 
z"/>
<path fill="#ffffffff" opacity="1.000000" stroke="none" 
	d="
M279.987549,32.268414 
	C277.833832,34.614017 276.514862,33.291561 275.203400,31.343552 
	C274.162018,29.796698 273.997314,27.404993 271.493774,27.113522 
	C269.143921,28.623375 271.435547,30.884878 270.540527,32.612530 
	C268.977783,33.431358 267.674072,32.648605 266.075867,31.888754 
	C266.783508,26.444031 268.301575,20.999195 267.373444,15.183262 
	C270.499084,14.605574 273.276306,15.457273 275.903168,16.115812 
	C279.205841,16.943777 280.883972,20.229790 278.949493,22.667734 
	C275.826904,26.603045 278.407715,29.029942 279.987549,32.268414 
M271.853180,22.318867 
	C274.057281,24.190962 275.041687,22.833958 275.475494,20.794868 
	C275.766479,19.426912 275.180176,17.876953 273.681458,17.859255 
	C270.975494,17.827303 271.431854,19.971395 271.853180,22.318867 
z"/>
<path fill="#ffffffff" opacity="1.000000" stroke="none" 
	d="
M216.997070,23.947418 
	C216.656982,21.443075 216.573669,19.304611 215.316055,16.992613 
	C219.520645,16.840206 223.287231,14.382741 226.651627,17.773499 
	C228.133072,19.266537 229.777573,29.588161 228.963120,30.834167 
	C227.376251,33.261860 222.836914,34.437321 217.984909,33.641991 
	C217.684769,30.556767 217.382431,27.448997 216.997070,23.947418 
M221.447464,29.177656 
	C221.779999,30.669434 222.519180,31.658854 224.208710,31.070852 
	C225.289017,30.694868 225.618958,29.717640 225.514908,28.657532 
	C225.395767,27.443665 224.934509,26.284515 223.612808,26.060427 
	C221.747650,25.744194 221.441803,27.078283 221.447464,29.177656 
M220.845749,22.171450 
	C222.357300,23.399984 223.255356,22.768291 223.593933,21.131262 
	C223.807083,20.100744 223.365082,18.934328 222.265259,18.884109 
	C220.354233,18.796852 220.447235,20.298819 220.845749,22.171450 
z"/>
<path fill="#ffffffff" opacity="1.000000" stroke="none" 
	d="
M456.103516,132.171967 
	C457.326508,134.368805 458.378021,136.257523 459.411377,138.156097 
	C460.494537,140.146072 460.187225,141.645447 457.649994,142.529037 
	C456.097534,140.596542 458.330017,136.833206 454.764465,135.958115 
	C453.754547,135.710251 452.796600,136.251114 452.159088,137.101700 
	C450.617554,139.158447 453.519592,139.793320 453.582245,141.392456 
	C452.700745,142.972427 451.193756,143.550369 449.525024,143.926147 
	C448.095154,142.926224 449.844513,140.833099 447.876556,139.870911 
	C446.090698,139.796890 444.303101,140.386627 444.261536,142.666718 
	C444.205109,145.762711 447.124847,146.321671 449.431122,147.344101 
	C445.505554,150.656479 443.253326,148.554657 440.149445,138.968964 
	C444.324738,135.873108 449.508667,134.243057 453.587677,130.833633 
	C454.722870,129.884781 455.302643,131.146912 456.103516,132.171967 
z"/>
<path fill="#ffffffff" opacity="1.000000" stroke="none" 
	d="
M25.857176,207.712006 
	C29.052727,209.361176 31.368662,206.003555 34.544094,206.929276 
	C34.754330,211.856400 28.851017,210.814392 27.536297,213.900589 
	C28.730003,216.451050 31.256250,214.895477 32.955143,215.965347 
	C33.370144,218.671204 32.838383,220.079407 29.576534,219.312637 
	C25.244553,218.294327 20.836781,217.598465 16.035872,216.682861 
	C15.069601,212.912231 15.757736,209.278061 18.897161,206.612686 
	C21.071426,204.766754 23.566315,205.434082 25.857176,207.712006 
M22.428730,213.870102 
	C24.276747,213.836288 24.833227,212.906128 24.053169,211.296265 
	C23.418709,209.986877 22.265310,209.336182 20.788130,209.564621 
	C19.744711,209.725967 18.808615,210.306168 18.740974,211.421478 
	C18.610212,213.577530 20.378109,213.532013 22.428730,213.870102 
z"/>
<path fill="#ffffffff" opacity="1.000000" stroke="none" 
	d="
M303.748138,32.864731 
	C304.834930,25.133682 309.724762,21.192650 315.280945,23.143658 
	C319.685730,24.690355 321.867462,28.376839 321.300446,33.314819 
	C320.827881,37.430210 317.136261,40.946548 312.985291,41.235153 
	C308.481659,41.548279 305.615631,39.071545 303.748138,32.864731 
M307.606293,31.200846 
	C307.200623,33.906826 307.027527,36.588390 309.931854,38.118771 
	C311.719818,39.060909 313.522888,38.711346 314.959961,37.329197 
	C317.566589,34.822174 318.267303,31.676201 317.472382,28.238634 
	C317.075470,26.522335 315.883972,25.183949 314.059875,25.090364 
	C310.369904,24.901051 309.074738,27.709522 307.606293,31.200846 
z"/>
<path fill="#ffffffff" opacity="1.000000" stroke="none" 
	d="
M384.016266,74.686668 
	C384.763031,67.577065 388.548889,63.667046 393.772461,64.139832 
	C398.301758,64.549782 401.973145,68.178818 402.246033,72.515717 
	C402.520294,76.873665 398.949005,81.271088 394.435242,82.133369 
	C389.705811,83.036850 386.259277,80.685623 384.016266,74.686668 
M397.123260,67.371574 
	C392.009918,66.217789 386.935181,70.231873 387.282654,75.199234 
	C387.496490,78.256508 389.367676,79.700813 392.254120,79.413963 
	C397.230225,78.919449 400.233551,72.306244 397.123260,67.371574 
z"/>
<path fill="#ffffffff" opacity="1.000000" stroke="none" 
	d="
M251.102325,17.299114 
	C249.875183,16.885172 248.929047,16.411142 247.987869,16.420803 
	C246.134842,16.439821 245.235016,17.698803 245.525589,19.408369 
	C246.109268,22.842537 248.583679,20.534410 250.209702,20.707401 
	C251.595062,22.157099 251.266769,23.757050 250.886963,25.451696 
	C249.281891,26.686853 247.168411,22.993595 245.781326,25.905346 
	C245.222305,27.078806 245.345917,28.323660 246.364853,29.074173 
	C249.157578,31.131176 251.254242,28.747511 253.536453,27.658701 
	C254.644241,32.695339 250.751587,33.955082 241.802948,31.458525 
	C241.802948,26.104454 241.802948,20.708662 241.802948,14.949508 
	C245.067001,14.764720 248.154282,14.517634 251.245697,14.443641 
	C252.940414,14.403078 253.646698,15.758435 253.490219,17.130371 
	C253.283127,18.945938 252.184143,17.859810 251.102325,17.299114 
z"/>
<path fill="#ffffffff" opacity="1.000000" stroke="none" 
	d="
M81.692062,88.867401 
	C81.867157,83.432350 84.383232,80.337616 89.395332,79.645515 
	C93.975060,79.013138 97.848961,81.421715 99.222252,85.521568 
	C100.689606,89.902237 99.246780,93.414673 95.646202,96.005669 
	C90.364395,99.806480 84.093826,96.727768 81.692062,88.867401 
M93.934845,94.376633 
	C96.543098,93.224770 97.123711,91.055183 96.470070,88.596886 
	C95.643005,85.486343 93.428177,83.490868 90.395721,82.563713 
	C88.566696,82.004494 86.733513,82.252922 85.406914,83.861031 
	C84.080841,85.468491 84.137642,87.262558 85.141510,88.965515 
	C86.959946,92.050316 89.092102,94.771454 93.934845,94.376633 
z"/>
<path fill="#ffffffff" opacity="1.000000" stroke="none" 
	d="
M23.233078,182.412994 
	C25.595684,178.961716 28.489347,177.264938 32.362484,177.881058 
	C37.938400,178.768036 41.252625,183.392303 40.208912,188.650589 
	C39.171398,193.877670 34.213261,196.657333 28.656870,195.126968 
	C23.392834,193.677139 21.258642,188.967987 23.233078,182.412994 
M31.150913,181.462601 
	C28.006796,181.175034 25.389891,182.031113 24.606380,185.389511 
	C23.951164,188.198029 26.093063,189.593643 28.188589,190.722839 
	C32.120815,192.841751 36.759533,192.159439 37.833012,189.090500 
	C39.382492,184.660721 35.782814,183.431854 32.822029,181.944656 
	C32.527302,181.796616 32.199741,181.713913 31.150913,181.462601 
z"/>
<path fill="#ffffffff" opacity="1.000000" stroke="none" 
	d="
M164.723724,35.367279 
	C164.808563,33.316048 164.325104,31.523123 166.586868,30.223553 
	C171.322174,33.641701 174.547302,38.696106 179.105286,43.026115 
	C177.335815,44.356327 175.589157,45.974960 174.218048,44.304279 
	C172.691071,42.443691 171.879044,39.987335 168.926529,41.369698 
	C166.034836,42.723587 167.817490,45.449608 167.574188,47.587688 
	C164.785095,46.617756 164.785095,46.617756 164.723724,35.367279 
z"/>
<path fill="#ffffffff" opacity="1.000000" stroke="none" 
	d="
M43.450607,142.678452 
	C42.337597,141.461014 41.206020,140.565735 42.290047,138.725586 
	C47.972134,138.133301 53.609112,140.075012 59.603653,139.954849 
	C59.753910,142.311356 59.659248,144.665451 56.940628,144.086075 
	C54.431980,143.551468 52.304146,142.705673 51.189819,145.720932 
	C49.976475,149.004135 53.299850,149.200928 55.050568,150.620850 
	C54.193085,153.008789 53.463055,154.594772 51.152077,151.641953 
	C48.795258,148.630585 46.181751,145.820114 43.450607,142.678452 
z"/>
<path fill="#ffffffff" opacity="1.000000" stroke="none" 
	d="
M377.104187,50.613686 
	C379.568481,53.161560 383.810883,55.046909 379.211884,59.490849 
	C378.139099,55.717453 378.452362,51.125065 373.133240,51.672276 
	C369.560394,52.039837 365.660736,57.693497 366.547180,61.079620 
	C367.896545,66.234230 372.015961,64.663406 375.790619,64.302269 
	C375.640045,67.334251 374.767487,68.519302 371.547760,67.709663 
	C365.641968,66.224579 362.040863,61.757214 363.243286,56.778690 
	C364.759766,50.499901 369.774261,48.147923 377.104187,50.613686 
z"/>
<path fill="#ffffffff" opacity="1.000000" stroke="none" 
	d="
M35.309025,158.902985 
	C33.711544,160.055267 31.978504,161.200211 33.519440,163.009796 
	C35.143082,164.916534 36.817795,163.646088 38.177765,162.268280 
	C40.743168,159.669250 43.864830,157.896011 46.847420,160.795670 
	C49.932312,163.794785 48.107109,167.169388 46.020840,170.234375 
	C44.591858,172.333710 43.205185,172.098618 41.527946,170.659027 
	C41.815556,168.709763 43.841316,169.065598 44.834045,168.095062 
	C45.964001,166.990372 47.017616,165.826660 45.666019,164.276138 
	C44.618801,163.074814 43.302597,163.194443 42.094288,164.101028 
	C40.772259,165.092957 39.634525,166.416809 38.188042,167.137604 
	C35.609989,168.422287 33.292614,167.623016 31.627909,165.331879 
	C29.582998,162.517471 30.759565,160.063965 32.609291,157.646362 
	C34.373707,155.340271 36.082726,155.782730 37.972027,157.223618 
	C37.671787,158.871292 36.314587,158.280457 35.309025,158.902985 
z"/>
<path fill="#ffffffff" opacity="1.000000" stroke="none" 
	d="
M473.918793,179.650177 
	C478.098572,181.847778 479.378967,185.161942 479.367859,189.330307 
	C479.359772,192.373322 478.180695,193.582275 474.688995,193.017227 
	C476.470245,189.530151 479.862488,185.936935 474.377289,183.109222 
	C471.355774,181.551575 465.324219,183.523819 463.951050,186.680573 
	C461.849274,191.512314 465.971619,192.806488 469.299957,194.759216 
	C467.004272,196.692291 465.175751,196.996902 463.719238,194.504303 
	C461.577057,190.838379 459.630188,186.913269 462.545685,182.883484 
	C465.238190,179.161880 469.045868,177.918915 473.918793,179.650177 
z"/>
<path fill="#ffffffff" opacity="1.000000" stroke="none" 
	d="
M466.613953,210.096985 
	C466.427643,207.940674 467.504303,207.647217 469.017487,207.420944 
	C472.936859,206.834900 476.906708,206.326431 480.700195,205.241028 
	C483.684601,204.387100 483.611694,206.126282 483.976288,207.947571 
	C482.136597,209.768356 479.421539,208.673019 477.610718,209.942261 
	C476.294495,212.009750 479.043823,212.789490 478.925812,214.433609 
	C477.438171,215.737640 475.860840,215.468582 474.255737,215.082779 
	C473.302368,213.735260 475.591614,211.705994 473.224548,210.721985 
	C470.185242,209.458527 468.094086,212.726196 469.906677,215.905396 
	C470.608215,217.135925 472.355011,217.705078 472.260925,219.488617 
	C467.847198,219.610489 467.600922,219.209244 466.613953,210.096985 
z"/>
<path fill="#ffffffff" opacity="1.000000" stroke="none" 
	d="
M338.142639,41.859062 
	C332.674988,40.254913 334.331085,45.052643 332.808990,47.221981 
	C331.158661,47.876713 329.842224,46.964165 328.377991,45.664703 
	C331.271973,40.906036 332.952179,35.568657 335.092010,30.490305 
	C343.360565,32.142773 345.262909,33.487453 344.840851,37.492523 
	C342.604248,36.408947 341.556976,32.833218 338.356964,34.201561 
	C337.253723,34.673313 336.849030,36.034683 336.963928,37.213150 
	C337.194916,39.582729 339.806458,38.277431 340.923584,39.606304 
	C340.734558,41.067009 340.731659,42.673191 338.142639,41.859062 
z"/>
<path fill="#ffffffff" opacity="1.000000" stroke="none" 
	d="
M197.796249,30.158175 
	C198.076569,32.735981 198.884399,35.607750 196.534286,38.019711 
	C193.169266,36.519348 191.948593,32.832283 188.717575,30.688705 
	C188.120590,34.138542 190.565216,36.643509 190.143433,39.862465 
	C186.137543,35.706432 187.172989,29.492420 184.298889,24.789885 
	C186.486160,22.879223 188.071121,23.280416 189.564041,25.120438 
	C190.919632,26.791185 192.297897,28.443956 193.687836,30.086300 
	C194.895935,31.513777 196.161331,32.451263 197.796249,30.158175 
z"/>
<path fill="#ffffffff" opacity="1.000000" stroke="none" 
	d="
M125.670715,70.943130 
	C119.257423,71.992859 115.520416,70.225212 113.991409,65.746925 
	C112.490601,61.351212 113.871956,57.544430 117.687973,55.559887 
	C115.849449,62.308857 117.909370,67.713043 122.851936,68.635818 
	C127.845573,69.568138 128.472610,65.844757 129.034668,62.247639 
	C132.605972,64.268158 132.709534,64.418419 130.472565,66.856010 
	C129.141525,68.306412 127.506241,69.477585 125.670715,70.943130 
z"/>
<path fill="#ffffffff" opacity="1.000000" stroke="none" 
	d="
M68.965805,102.260681 
	C66.084595,99.510437 68.943199,98.822113 70.181839,97.254875 
	C74.434441,101.265862 78.430214,105.142891 83.207909,108.062248 
	C83.220329,110.059921 81.989616,111.040924 80.203110,112.013199 
	C77.009438,108.348648 73.352875,105.118805 68.965805,102.260681 
z"/>
<path fill="#ffffffff" opacity="1.000000" stroke="none" 
	d="
M198.166748,29.788082 
	C198.794846,26.529692 196.804993,22.077017 201.621246,19.318008 
	C203.725037,24.954573 203.942337,30.526686 206.365005,35.441513 
	C205.173645,36.850632 203.804230,37.521873 201.731552,36.783131 
	C201.592621,33.601582 201.038452,30.390379 199.897125,27.281982 
	C198.360306,27.519573 199.088272,29.017363 198.166748,29.788082 
z"/>
</svg>